<svg width="48" height="48" viewBox="0 0 48 48" fill="none" xmlns="http://www.w3.org/2000/svg">
<rect x="1" y="1" width="46" height="46" rx="23" stroke="#F7752A" stroke-width="2"/>
<path d="M27.6698 17.4966H33.6585V18.9495H27.6698V17.4966ZM21.669 23.2452C22.9929 22.6118 23.6863 21.6482 23.6863 20.1593C23.6863 17.2144 21.4949 16.5 18.9644 16.5H12V31.2812H19.1595C21.8432 31.2812 24.3617 29.9904 24.3617 26.9886C24.3617 25.1334 23.4852 23.7615 21.669 23.2452ZM15.248 19.0216H18.2949C19.4687 19.0216 20.5223 19.3488 20.5223 20.7116C20.5223 21.9664 19.7028 22.4707 18.5411 22.4707H15.248V19.0216ZM18.7152 28.7717H15.245V24.7011H18.7842C20.2131 24.7011 21.1167 25.2985 21.1167 26.8114C21.1167 28.3004 20.039 28.7717 18.7152 28.7717ZM36 26.085C36 22.918 34.1478 20.2794 30.7977 20.2794C27.5407 20.2794 25.3253 22.7319 25.3253 25.9469C25.3253 29.279 27.4236 31.5664 30.7977 31.5664C33.3523 31.5664 35.0064 30.4167 35.8019 27.9642H33.2113C32.9291 28.8797 31.7824 29.36 30.8908 29.36C29.1677 29.36 28.2672 28.3514 28.2672 26.6373H35.979C35.988 26.4602 36 26.2741 36 26.085ZM28.2672 24.7822C28.3602 23.3743 29.2998 22.4947 30.7047 22.4947C32.1816 22.4947 32.9201 23.3623 33.0492 24.7822H28.2672Z" fill="#F7752A"/>
</svg>
