<svg width="40" height="40" viewBox="0 0 40 40" fill="none" xmlns="http://www.w3.org/2000/svg">
<path fill-rule="evenodd" clip-rule="evenodd" d="M19.5293 34C27.0793 34 33.1998 27.732 33.1998 20C33.1998 12.268 27.0793 6 19.5293 6C11.9793 6 5.85879 12.268 5.85879 20C5.85879 27.732 11.9793 34 19.5293 34ZM19.5293 40C30.315 40 39.0586 31.0457 39.0586 20C39.0586 8.95431 30.315 0 19.5293 0C8.74356 0 0 8.95431 0 20C0 31.0457 8.74356 40 19.5293 40Z" fill="#F7752A"/>
<path d="M19.5295 10.8L24.7771 16.1892C27.6752 19.1656 27.6752 23.9913 24.7771 26.9677C21.8789 29.9441 17.1801 29.9441 14.282 26.9677C11.3839 23.9913 11.3839 19.1656 14.282 16.1892L19.5295 10.8Z" fill="#FC2F1E"/>
<path d="M19.5293 15.5932L23.0718 19.2313C25.0283 21.2406 25.0283 24.4983 23.0718 26.5076C21.1154 28.5169 17.9433 28.5169 15.9869 26.5076C14.0304 24.4983 14.0304 21.2406 15.9869 19.2313L19.5293 15.5932Z" fill="#F7752A"/>
<path d="M19.5291 19.6L21.533 21.6579C22.6396 22.7945 22.6396 24.6372 21.533 25.7738C20.4263 26.9103 18.632 26.9103 17.5253 25.7738C16.4186 24.6372 16.4186 22.7945 17.5253 21.6579L19.5291 19.6Z" fill="#FCAB1E"/>
</svg>
