<svg width="48" height="48" viewBox="0 0 48 48" fill="none" xmlns="http://www.w3.org/2000/svg">
<rect x="1" y="1" width="46" height="46" rx="23" stroke="#F7752A" stroke-width="2"/>
<path d="M23.9975 21.1652C22.1613 21.1652 20.6627 22.6638 20.6627 24.5C20.6627 26.3362 22.1613 27.8348 23.9975 27.8348C25.8337 27.8348 27.3323 26.3362 27.3323 24.5C27.3323 22.6638 25.8337 21.1652 23.9975 21.1652ZM33.9993 24.5C33.9993 23.1191 34.0118 21.7506 33.9342 20.3722C33.8567 18.7711 33.4914 17.3502 32.3206 16.1794C31.1473 15.0061 29.7289 14.6433 28.1278 14.5658C26.7469 14.4882 25.3784 14.5007 24 14.5007C22.6191 14.5007 21.2506 14.4882 19.8722 14.5658C18.2711 14.6433 16.8502 15.0086 15.6794 16.1794C14.5061 17.3527 14.1433 18.7711 14.0658 20.3722C13.9882 21.7531 14.0007 23.1216 14.0007 24.5C14.0007 25.8784 13.9882 27.2494 14.0658 28.6278C14.1433 30.2289 14.5086 31.6498 15.6794 32.8206C16.8527 33.9939 18.2711 34.3567 19.8722 34.4342C21.2531 34.5118 22.6216 34.4993 24 34.4993C25.3809 34.4993 26.7494 34.5118 28.1278 34.4342C29.7289 34.3567 31.1498 33.9914 32.3206 32.8206C33.4939 31.6473 33.8567 30.2289 33.9342 28.6278C34.0143 27.2494 33.9993 25.8809 33.9993 24.5ZM23.9975 29.631C21.1581 29.631 18.8665 27.3394 18.8665 24.5C18.8665 21.6606 21.1581 19.369 23.9975 19.369C26.8369 19.369 29.1285 21.6606 29.1285 24.5C29.1285 27.3394 26.8369 29.631 23.9975 29.631ZM29.3386 20.3572C28.6757 20.3572 28.1403 19.8218 28.1403 19.1589C28.1403 18.4959 28.6757 17.9606 29.3386 17.9606C30.0016 17.9606 30.5369 18.4959 30.5369 19.1589C30.5371 19.3163 30.5063 19.4722 30.4461 19.6177C30.386 19.7632 30.2977 19.8954 30.1864 20.0067C30.0751 20.118 29.9429 20.2062 29.7974 20.2664C29.6519 20.3265 29.496 20.3574 29.3386 20.3572Z" fill="#F7752A"/>
</svg>
