<svg width="48" height="48" viewBox="0 0 48 48" fill="none" xmlns="http://www.w3.org/2000/svg">
<path fill-rule="evenodd" clip-rule="evenodd" d="M17 18C17 17.7348 17.1054 17.4804 17.2929 17.2929C17.4804 17.1054 17.7348 17 18 17H30C30.2652 17 30.5196 17.1054 30.7071 17.2929C30.8946 17.4804 31 17.7348 31 18C31 18.2652 30.8946 18.5196 30.7071 18.7071C30.5196 18.8946 30.2652 19 30 19H18C17.7348 19 17.4804 18.8946 17.2929 18.7071C17.1054 18.5196 17 18.2652 17 18ZM17 22C17 21.7348 17.1054 21.4804 17.2929 21.2929C17.4804 21.1054 17.7348 21 18 21H30C30.2652 21 30.5196 21.1054 30.7071 21.2929C30.8946 21.4804 31 21.7348 31 22C31 22.2652 30.8946 22.5196 30.7071 22.7071C30.5196 22.8946 30.2652 23 30 23H18C17.7348 23 17.4804 22.8946 17.2929 22.7071C17.1054 22.5196 17 22.2652 17 22ZM17 26C17 25.7348 17.1054 25.4804 17.2929 25.2929C17.4804 25.1054 17.7348 25 18 25H30C30.2652 25 30.5196 25.1054 30.7071 25.2929C30.8946 25.4804 31 25.7348 31 26C31 26.2652 30.8946 26.5196 30.7071 26.7071C30.5196 26.8946 30.2652 27 30 27H18C17.7348 27 17.4804 26.8946 17.2929 26.7071C17.1054 26.5196 17 26.2652 17 26ZM17 30C17 29.7348 17.1054 29.4804 17.2929 29.2929C17.4804 29.1054 17.7348 29 18 29H30C30.2652 29 30.5196 29.1054 30.7071 29.2929C30.8946 29.4804 31 29.7348 31 30C31 30.2652 30.8946 30.5196 30.7071 30.7071C30.5196 30.8946 30.2652 31 30 31H18C17.7348 31 17.4804 30.8946 17.2929 30.7071C17.1054 30.5196 17 30.2652 17 30Z" fill="#141414"/>
</svg>
