<svg width="215" height="159" viewBox="0 0 215 159" fill="none" xmlns="http://www.w3.org/2000/svg">
<rect x="63.5" y="12.5" width="88" height="88" rx="44" fill="#141414" fill-opacity="0.25"/>
<rect x="63.5" y="12.5" width="88" height="88" rx="44" stroke="#F7752A" stroke-width="24"/>
<path fill-rule="evenodd" clip-rule="evenodd" d="M121.823 70.2739C121.617 69.0217 121.068 67.7 120.587 67.4217C119.831 67.0043 119.625 64.0826 119.625 53.7174V40.5H94.8942V53.7174C94.8942 64.8478 94.7568 67.0739 93.8638 67.3522C93.2455 67.6304 92.8333 68.6739 92.8333 70.1348V72.5H122.167L121.823 70.2739ZM121.068 68.3261L120.861 69.9261C120.655 71.4555 120.587 71.4565 107.15 71.6648L107.122 71.6652L93.5203 71.8043V68.3261H121.068ZM95.5812 41.1957V67.6304H118.938V41.1957H95.5812ZM114.816 64.8478V48.9174L100.046 49.1957L99.6343 64.8478H114.816ZM114.129 64.1522H112.137C110.214 64.1522 110.145 64.013 110.488 61.8565C110.694 60.3261 110.351 58.5174 109.32 56.2913C107.603 52.6043 106.435 51.9783 107.053 55.1087C107.328 56.7783 107.26 57.1261 106.435 56.8478C104.718 56.1522 103.619 58.3087 104.031 61.3696C104.374 64.0826 104.306 64.1522 102.382 64.1522H100.39V50.2391H114.129V64.1522ZM108.633 59.2826C107.328 58.4478 105.199 60.0478 105.199 61.8565C105.199 64.2913 108.427 64.0826 109.046 61.6478C109.32 60.4652 109.183 59.6304 108.633 59.2826Z" fill="#FEFEFF"/>
<path d="M107.122 71.6652L93.5203 71.8043V68.3261H121.068L120.861 69.9261C120.655 71.4555 120.587 71.4565 107.15 71.6648M107.122 71.6652L107.15 71.6648M107.122 71.6652C107.132 71.6651 107.141 71.6649 107.15 71.6648M121.823 70.2739C121.617 69.0217 121.068 67.7 120.587 67.4217C119.831 67.0043 119.625 64.0826 119.625 53.7174V40.5H94.8942V53.7174C94.8942 64.8478 94.7568 67.0739 93.8638 67.3522C93.2455 67.6304 92.8333 68.6739 92.8333 70.1348V72.5H122.167L121.823 70.2739ZM95.5812 41.1957V67.6304H118.938V41.1957H95.5812ZM114.816 48.9174V64.8478H99.6343L100.046 49.1957L114.816 48.9174ZM100.39 50.2391V64.1522H102.382C104.306 64.1522 104.374 64.0826 104.031 61.3696C103.619 58.3087 104.718 56.1522 106.435 56.8478C107.26 57.1261 107.328 56.7783 107.053 55.1087C106.435 51.9783 107.603 52.6043 109.32 56.2913C110.351 58.5174 110.694 60.3261 110.488 61.8565C110.145 64.013 110.214 64.1522 112.137 64.1522H114.129V50.2391H100.39ZM105.199 61.8565C105.199 60.0478 107.328 58.4478 108.633 59.2826C109.183 59.6304 109.32 60.4652 109.046 61.6478C108.427 64.0826 105.199 64.2913 105.199 61.8565Z" stroke="#FEFEFF" stroke-width="0.75"/>
<path d="M22.0426 131.06V152.5H17.4666V135.476H7.54663V152.5H3.00262V131.06H22.0426ZM32.6661 136.084C35.3115 136.084 37.4021 137.023 38.9381 138.9C40.4741 140.777 41.0928 143.135 40.7941 145.972H28.7621C28.8901 146.825 29.2955 147.551 29.9781 148.148C30.6821 148.724 31.5675 149.033 32.6341 149.076C33.3808 149.119 34.0741 148.991 34.7141 148.692C35.3755 148.372 35.8448 147.956 36.1221 147.444H40.6341C40.1221 149.193 39.1408 150.559 37.6901 151.54C36.2395 152.5 34.5541 152.98 32.6341 152.98C30.0528 152.98 28.0261 152.169 26.5541 150.548C25.0821 148.905 24.3461 146.9 24.3461 144.532C24.3461 142.143 25.1248 140.137 26.6821 138.516C28.2608 136.895 30.2555 136.084 32.6661 136.084ZM35.0341 140.66C34.3728 140.191 33.5728 139.956 32.6341 139.956C31.6955 139.956 30.8741 140.201 30.1701 140.692C29.4875 141.161 29.0288 141.801 28.7941 142.612H36.4101C36.1755 141.78 35.7168 141.129 35.0341 140.66ZM53.0646 143.476V136.564H57.3846V152.5H53.0646V147.54H47.3686C45.8966 147.54 44.7233 147.124 43.8486 146.292C42.9953 145.46 42.5686 144.329 42.5686 142.9V136.564H46.8886V142.292C46.8886 143.081 47.326 143.476 48.2006 143.476H53.0646ZM64.9691 146.228L71.9131 136.564H76.2331V152.5H71.9131V142.836L64.9691 152.5H60.6491V136.564H64.9691V146.228ZM79.3991 145.748V141.844H90.7911V145.748H79.3991ZM109.386 136.564L105.834 142.74C106.794 142.847 107.572 143.231 108.17 143.892C108.788 144.532 109.098 145.375 109.098 146.42V152.5H104.778V147.636C104.778 146.847 104.351 146.452 103.498 146.452H98.2816V152.5H93.9616V136.564H98.2816V142.708H101.322L104.714 136.564H109.386ZM123.837 138.612V136.564H128.125V152.5H123.837V150.388H123.677C123.165 151.156 122.461 151.775 121.565 152.244C120.669 152.713 119.655 152.959 118.525 152.98C116.349 152.98 114.535 152.201 113.085 150.644C111.655 149.065 110.941 147.039 110.941 144.564C110.941 142.089 111.645 140.052 113.053 138.452C114.482 136.852 116.317 136.063 118.557 136.084C119.666 136.084 120.669 136.319 121.565 136.788C122.461 137.257 123.165 137.865 123.677 138.612H123.837ZM116.477 147.668C117.287 148.479 118.322 148.884 119.581 148.884C120.839 148.884 121.863 148.468 122.653 147.636C123.442 146.783 123.837 145.748 123.837 144.532C123.837 143.295 123.431 142.26 122.621 141.428C121.831 140.596 120.818 140.18 119.581 140.18C118.322 140.18 117.287 140.596 116.477 141.428C115.687 142.239 115.293 143.273 115.293 144.532C115.293 145.791 115.687 146.836 116.477 147.668ZM151.686 136.564V152.5H147.366V141.428L143.206 152.5H139.878L135.75 141.46V152.5H131.43V136.564H138.118L141.606 146.132L145.062 136.564H151.686ZM159.282 146.228L166.226 136.564H170.546V152.5H166.226V142.836L159.282 152.5H154.962V136.564H159.282V146.228ZM184.909 142.356V136.564H189.229V152.5H184.909V146.452H178.157V152.5H173.837V136.564H178.157V142.356H184.909ZM196.844 141.3H200.94C202.668 141.3 204.055 141.855 205.1 142.964C206.145 144.052 206.668 145.353 206.668 146.868C206.668 148.404 206.145 149.727 205.1 150.836C204.055 151.945 202.668 152.5 200.94 152.5H192.524V136.564H196.844V141.3ZM208.108 152.5V136.564H212.428V152.5H208.108ZM196.844 148.564H200.684C201.196 148.564 201.612 148.393 201.932 148.052C202.252 147.711 202.412 147.295 202.412 146.804C202.412 146.335 202.252 145.929 201.932 145.588C201.612 145.247 201.196 145.076 200.684 145.076H196.844V148.564Z" fill="#FEFEFF"/>
</svg>
