<svg width="48" height="48" viewBox="0 0 48 48" fill="none" xmlns="http://www.w3.org/2000/svg">
<rect width="48" height="48" rx="24" fill="#141414" fill-opacity="0.05"/>
<path d="M19.5 17C18.9696 17 18.4609 17.2107 18.0858 17.5858C17.7107 17.9609 17.5 18.4696 17.5 19V21C17.5 21.5304 17.7107 22.0391 18.0858 22.4142C18.4609 22.7893 18.9696 23 19.5 23H21.5C22.0304 23 22.5391 22.7893 22.9142 22.4142C23.2893 22.0391 23.5 21.5304 23.5 21V19C23.5 18.4696 23.2893 17.9609 22.9142 17.5858C22.5391 17.2107 22.0304 17 21.5 17H19.5ZM19.5 25C18.9696 25 18.4609 25.2107 18.0858 25.5858C17.7107 25.9609 17.5 26.4696 17.5 27V29C17.5 29.5304 17.7107 30.0391 18.0858 30.4142C18.4609 30.7893 18.9696 31 19.5 31H21.5C22.0304 31 22.5391 30.7893 22.9142 30.4142C23.2893 30.0391 23.5 29.5304 23.5 29V27C23.5 26.4696 23.2893 25.9609 22.9142 25.5858C22.5391 25.2107 22.0304 25 21.5 25H19.5ZM25.5 19C25.5 18.4696 25.7107 17.9609 26.0858 17.5858C26.4609 17.2107 26.9696 17 27.5 17H29.5C30.0304 17 30.5391 17.2107 30.9142 17.5858C31.2893 17.9609 31.5 18.4696 31.5 19V21C31.5 21.5304 31.2893 22.0391 30.9142 22.4142C30.5391 22.7893 30.0304 23 29.5 23H27.5C26.9696 23 26.4609 22.7893 26.0858 22.4142C25.7107 22.0391 25.5 21.5304 25.5 21V19ZM25.5 27C25.5 26.4696 25.7107 25.9609 26.0858 25.5858C26.4609 25.2107 26.9696 25 27.5 25H29.5C30.0304 25 30.5391 25.2107 30.9142 25.5858C31.2893 25.9609 31.5 26.4696 31.5 27V29C31.5 29.5304 31.2893 30.0391 30.9142 30.4142C30.5391 30.7893 30.0304 31 29.5 31H27.5C26.9696 31 26.4609 30.7893 26.0858 30.4142C25.7107 30.0391 25.5 29.5304 25.5 29V27Z" fill="#61707D"/>
</svg>
