<svg width="628" height="198" viewBox="0 0 628 198" fill="none" xmlns="http://www.w3.org/2000/svg">
<rect x="270" y="12.5" width="88" height="88" rx="44" stroke="#F7752A" stroke-width="24"/>
<path fill-rule="evenodd" clip-rule="evenodd" d="M328.323 70.2739C328.117 69.0217 327.568 67.7 327.087 67.4217C326.331 67.0043 326.125 64.0826 326.125 53.7174V40.5H301.394V53.7174C301.394 64.8478 301.257 67.0739 300.364 67.3522C299.746 67.6304 299.333 68.6739 299.333 70.1348V72.5H328.667L328.323 70.2739ZM327.568 68.3261L327.361 69.9261C327.156 71.4555 327.087 71.4565 313.65 71.6648L313.622 71.6652L300.02 71.8043V68.3261H327.568ZM302.081 41.1957V67.6304H325.438V41.1957H302.081ZM321.316 64.8478V48.9174L306.546 49.1957L306.134 64.8478H321.316ZM320.629 64.1522H318.637C316.714 64.1522 316.645 64.013 316.988 61.8565C317.194 60.3261 316.851 58.5174 315.82 56.2913C314.103 52.6043 312.935 51.9783 313.553 55.1087C313.828 56.7783 313.76 57.1261 312.935 56.8478C311.218 56.1522 310.119 58.3087 310.531 61.3696C310.874 64.0826 310.806 64.1522 308.882 64.1522H306.89V50.2391H320.629V64.1522ZM315.134 59.2826C313.828 58.4478 311.699 60.0478 311.699 61.8565C311.699 64.2913 314.927 64.0826 315.546 61.6478C315.82 60.4652 315.683 59.6304 315.134 59.2826Z" fill="#FEFEFF"/>
<path d="M313.622 71.6652L300.02 71.8043V68.3261H327.568L327.361 69.9261C327.156 71.4555 327.087 71.4565 313.65 71.6648M313.622 71.6652L313.65 71.6648M313.622 71.6652C313.632 71.6651 313.641 71.6649 313.65 71.6648M328.323 70.2739C328.117 69.0217 327.568 67.7 327.087 67.4217C326.331 67.0043 326.125 64.0826 326.125 53.7174V40.5H301.394V53.7174C301.394 64.8478 301.257 67.0739 300.364 67.3522C299.746 67.6304 299.333 68.6739 299.333 70.1348V72.5H328.667L328.323 70.2739ZM302.081 41.1957V67.6304H325.438V41.1957H302.081ZM321.316 48.9174V64.8478H306.134L306.546 49.1957L321.316 48.9174ZM306.89 50.2391V64.1522H308.882C310.806 64.1522 310.874 64.0826 310.531 61.3696C310.119 58.3087 311.218 56.1522 312.935 56.8478C313.76 57.1261 313.828 56.7783 313.553 55.1087C312.935 51.9783 314.103 52.6043 315.82 56.2913C316.851 58.5174 317.194 60.3261 316.988 61.8565C316.645 64.013 316.714 64.1522 318.637 64.1522H320.629V50.2391H306.89ZM311.699 61.8565C311.699 60.0478 313.828 58.4478 315.133 59.2826C315.683 59.6304 315.82 60.4652 315.546 61.6478C314.927 64.0826 311.699 64.2913 311.699 61.8565Z" stroke="#FEFEFF" stroke-width="0.75"/>
<path d="M143.085 141.62V184.5H133.933V150.452H114.093V184.5H105.005V141.62H143.085ZM164.332 151.668C169.623 151.668 173.804 153.545 176.876 157.3C179.948 161.055 181.186 165.769 180.588 171.444H156.524C156.78 173.151 157.591 174.601 158.956 175.796C160.364 176.948 162.135 177.567 164.268 177.652C165.762 177.737 167.148 177.481 168.428 176.884C169.751 176.244 170.69 175.412 171.244 174.388H180.268C179.244 177.887 177.282 180.617 174.38 182.58C171.479 184.5 168.108 185.46 164.268 185.46C159.106 185.46 155.052 183.839 152.108 180.596C149.164 177.311 147.692 173.3 147.692 168.564C147.692 163.785 149.25 159.775 152.364 156.532C155.522 153.289 159.511 151.668 164.332 151.668ZM169.068 160.82C167.746 159.881 166.146 159.412 164.268 159.412C162.391 159.412 160.748 159.903 159.34 160.884C157.975 161.823 157.058 163.103 156.588 164.724H171.82C171.351 163.06 170.434 161.759 169.068 160.82ZM205.129 166.452V152.628H213.769V184.5H205.129V174.58H193.737C190.793 174.58 188.447 173.748 186.697 172.084C184.991 170.42 184.137 168.159 184.137 165.3V152.628H192.777V164.084C192.777 165.663 193.652 166.452 195.401 166.452H205.129ZM228.938 171.956L242.826 152.628H251.466V184.5H242.826V165.172L228.938 184.5H220.298V152.628H228.938V171.956ZM257.798 170.996V163.188H280.582V170.996H257.798ZM317.771 152.628L310.667 164.98C312.587 165.193 314.145 165.961 315.339 167.284C316.577 168.564 317.195 170.249 317.195 172.34V184.5H308.555V174.772C308.555 173.193 307.702 172.404 305.995 172.404H295.563V184.5H286.923V152.628H295.563V164.916H301.643L308.427 152.628H317.771ZM346.673 156.724V152.628H355.249V184.5H346.673V180.276H346.353C345.329 181.812 343.921 183.049 342.129 183.988C340.337 184.927 338.311 185.417 336.049 185.46C331.697 185.46 328.071 183.903 325.169 180.788C322.311 177.631 320.881 173.577 320.881 168.628C320.881 163.679 322.289 159.604 325.105 156.404C327.964 153.204 331.633 151.625 336.113 151.668C338.332 151.668 340.337 152.137 342.129 153.076C343.921 154.015 345.329 155.231 346.353 156.724H346.673ZM331.953 174.836C333.575 176.457 335.644 177.268 338.161 177.268C340.679 177.268 342.727 176.436 344.305 174.772C345.884 173.065 346.673 170.996 346.673 168.564C346.673 166.089 345.863 164.02 344.241 162.356C342.663 160.692 340.636 159.86 338.161 159.86C335.644 159.86 333.575 160.692 331.953 162.356C330.375 163.977 329.585 166.047 329.585 168.564C329.585 171.081 330.375 173.172 331.953 174.836ZM402.373 152.628V184.5H393.733V162.356L385.413 184.5H378.757L370.501 162.42V184.5H361.861V152.628H375.237L382.213 171.764L389.125 152.628H402.373ZM417.563 171.956L431.451 152.628H440.091V184.5H431.451V165.172L417.563 184.5H408.923V152.628H417.563V171.956ZM468.817 164.212V152.628H477.457V184.5H468.817V172.404H455.313V184.5H446.673V152.628H455.313V164.212H468.817ZM492.688 162.1H500.88C504.336 162.1 507.11 163.209 509.2 165.428C511.291 167.604 512.336 170.207 512.336 173.236C512.336 176.308 511.291 178.953 509.2 181.172C507.11 183.391 504.336 184.5 500.88 184.5H484.048V152.628H492.688V162.1ZM515.216 184.5V152.628H523.856V184.5H515.216ZM492.688 176.628H500.368C501.392 176.628 502.224 176.287 502.864 175.604C503.504 174.921 503.824 174.089 503.824 173.108C503.824 172.169 503.504 171.359 502.864 170.676C502.224 169.993 501.392 169.652 500.368 169.652H492.688V176.628Z" fill="#FEFEFF"/>
</svg>
