<svg width="48" height="48" viewBox="0 0 48 48" fill="none" xmlns="http://www.w3.org/2000/svg">
<rect x="1" y="1" width="46" height="46" rx="23" stroke="#F7752A" stroke-width="2"/>
<path d="M24.8089 12.5C19.8752 12.5 15 15.7889 15 21.1118C15 24.4969 16.9041 26.4202 18.0581 26.4202C18.5343 26.4202 18.8082 25.0931 18.8082 24.7184C18.8082 24.2715 17.6688 23.319 17.6688 21.458C17.6688 17.5922 20.6115 14.8511 24.4196 14.8511C27.6939 14.8511 30.1173 16.7121 30.1173 20.1309C30.1173 22.6843 29.0933 27.4734 25.7752 27.4734C24.5781 27.4734 23.5534 26.6079 23.5534 25.3677C23.5534 23.5498 24.8228 21.7904 24.8228 19.9148C24.8228 16.7321 20.3076 17.3091 20.3076 21.1557C20.3076 21.9635 20.4084 22.8574 20.7692 23.5937C20.1052 26.4502 18.7497 30.7053 18.7497 33.648C18.7497 34.5566 18.8797 35.4513 18.9659 36.3599C19.129 36.543 19.0474 36.5237 19.2975 36.4322C21.7208 33.1141 21.6347 32.4655 22.731 28.1235C23.3226 29.249 24.8512 29.8545 26.0629 29.8545C31.1689 29.8545 33.4631 24.8777 33.4631 20.3917C33.4631 15.6173 29.3372 12.5015 24.8081 12.5015L24.8089 12.5Z" fill="#F7752A"/>
</svg>
