<svg width="171" height="110" viewBox="0 0 171 110" fill="none" xmlns="http://www.w3.org/2000/svg">
<g filter="url(#filter0_dddd_3600_4646)">
<ellipse cx="85.5345" cy="34.5168" rx="55" ry="12.5" transform="rotate(-15 85.5345 34.5168)" fill="url(#paint0_linear_3600_4646)"/>
<path fill-rule="evenodd" clip-rule="evenodd" d="M65.9599 38.7327L65.9599 38.7327C65.9785 38.8053 65.9975 38.8779 66.0169 38.9504C67.2701 43.6275 70.0641 47.4802 73.7063 50.109C78.5281 49.1544 83.5848 47.9804 88.7698 46.5911C94.1228 45.1567 99.2428 43.592 104.026 41.9517C105.852 37.8627 106.338 33.1438 105.089 28.4812C105.069 28.4086 105.049 28.3363 105.029 28.2641C103.947 24.3932 101.804 21.0974 99.0017 18.6072C94.0875 14.241 87.1427 12.3513 80.3182 14.1799C71.2758 16.6028 65.3145 24.7845 65.3228 33.7217C65.3234 34.4125 65.3597 35.1078 65.433 35.8052C65.5353 36.7789 65.7097 37.7568 65.9599 38.7327Z" fill="url(#paint1_linear_3600_4646)"/>
</g>
<path d="M19.036 76.9835H18.334V82.3115H15.67V69.7115H18.334V75.2555L18.964 74.9855L22.744 69.7115H25.786L21.79 74.9855L20.746 75.6695L21.826 76.3895L26.398 82.3115H23.104L19.036 76.9835ZM26.9145 77.5955C26.9145 76.0355 27.3285 74.8115 28.1565 73.9235C28.9845 73.0355 30.1665 72.5915 31.7025 72.5915C32.5065 72.5915 33.2085 72.7175 33.8085 72.9695C34.4085 73.2215 34.9065 73.5755 35.3025 74.0315C35.6985 74.4755 35.9925 75.0035 36.1845 75.6155C36.3885 76.2155 36.4905 76.8755 36.4905 77.5955C36.4905 78.3635 36.3825 79.0595 36.1665 79.6835C35.9505 80.2955 35.6385 80.8175 35.2305 81.2495C34.8225 81.6815 34.3185 82.0115 33.7185 82.2395C33.1305 82.4675 32.4585 82.5815 31.7025 82.5815C30.8865 82.5815 30.1785 82.4555 29.5785 82.2035C28.9785 81.9515 28.4805 81.6035 28.0845 81.1595C27.6885 80.7035 27.3945 80.1755 27.2025 79.5755C27.0105 78.9635 26.9145 78.3035 26.9145 77.5955ZM29.5065 77.5955C29.5065 77.9915 29.5485 78.3635 29.6325 78.7115C29.7165 79.0595 29.8425 79.3655 30.0105 79.6295C30.1905 79.8815 30.4185 80.0855 30.6945 80.2415C30.9705 80.3975 31.3065 80.4755 31.7025 80.4755C33.1665 80.4755 33.8985 79.5155 33.8985 77.5955C33.8985 77.1755 33.8565 76.7915 33.7725 76.4435C33.7005 76.0835 33.5745 75.7775 33.3945 75.5255C33.2265 75.2615 32.9985 75.0575 32.7105 74.9135C32.4345 74.7695 32.0985 74.6975 31.7025 74.6975C31.0185 74.6975 30.4785 74.9255 30.0825 75.3815C29.6985 75.8375 29.5065 76.5755 29.5065 77.5955ZM44.3963 75.0935H42.1823C42.1463 76.1015 42.0683 77.0495 41.9483 77.9375C41.8403 78.8255 41.6603 79.6055 41.4083 80.2775C41.1563 80.9375 40.8203 81.4595 40.4003 81.8435C39.9923 82.2275 39.4643 82.4195 38.8163 82.4195C38.0603 82.4195 37.5263 82.3355 37.2143 82.1675L37.5743 79.9355C37.7783 79.9955 37.9643 80.0255 38.1323 80.0255C38.4203 80.0255 38.6723 79.9235 38.8883 79.7195C39.1043 79.5155 39.2843 79.1495 39.4283 78.6215C39.5723 78.0815 39.6863 77.3495 39.7703 76.4255C39.8663 75.5015 39.9383 74.3135 39.9863 72.8615H46.9163V82.3115H44.3963V75.0935ZM55.1717 79.0895L53.7497 79.3235L51.7877 82.3115H48.7097L50.7437 79.4135L51.8057 78.9815C51.3377 78.9335 50.9477 78.8135 50.6357 78.6215C50.3237 78.4295 50.0717 78.1955 49.8797 77.9195C49.6877 77.6315 49.5497 77.3195 49.4657 76.9835C49.3937 76.6355 49.3577 76.2815 49.3577 75.9215C49.3577 74.7815 49.7657 73.9415 50.5817 73.4015C51.4097 72.8615 52.6817 72.5915 54.3977 72.5915C55.0097 72.5915 55.6037 72.6215 56.1797 72.6815C56.7557 72.7415 57.2597 72.8075 57.6917 72.8795V82.3115H55.1717V79.0895ZM55.1717 77.5055V74.8955C55.0157 74.8355 54.8357 74.7875 54.6317 74.7515C54.4277 74.7155 54.2297 74.6975 54.0377 74.6975C53.3657 74.6975 52.8557 74.8175 52.5077 75.0575C52.1597 75.2855 51.9857 75.6515 51.9857 76.1555C51.9857 76.6475 52.1777 77.0015 52.5617 77.2175C52.9577 77.4335 53.5457 77.5415 54.3257 77.5415L55.1717 77.5055ZM77.2323 84.5435H75.3423L75.0543 82.3115H66.2343L65.9463 84.5435H64.0563V79.9715H65.5143C65.6103 79.8395 65.7603 79.5515 65.9643 79.1075C66.1683 78.6635 66.3723 78.0275 66.5763 77.1995C66.7803 76.3715 66.9543 75.3455 67.0983 74.1215C67.2543 72.8855 67.3203 71.4155 67.2963 69.7115H75.5043V79.9715H77.2323V84.5435ZM72.8403 79.9715V72.0515H69.7803C69.7083 74.1155 69.5223 75.8075 69.2223 77.1275C68.9343 78.4475 68.6403 79.3955 68.3403 79.9715H72.8403ZM85.3138 78.0455L85.4218 76.4435L84.2878 78.0275L80.5618 82.3115H79.0498V72.8615H81.5698V77.3075L81.4798 78.6035H81.6958C81.8398 78.3995 81.9838 78.1835 82.1278 77.9555C82.2838 77.7275 82.4338 77.5115 82.5778 77.3075L86.3218 72.8615H87.8338V82.3115H85.3138V78.0455ZM91.5569 78.3875V76.6955H92.7269C93.2669 76.6955 93.6929 76.6115 94.0049 76.4435C94.3169 76.2635 94.4729 76.0235 94.4729 75.7235C94.4729 75.3755 94.3349 75.1355 94.0589 75.0035C93.7829 74.8595 93.3509 74.7875 92.7629 74.7875C92.2469 74.7875 91.7729 74.8535 91.3409 74.9855C90.9209 75.1055 90.5729 75.2315 90.2969 75.3635C90.2009 75.0395 90.1169 74.7335 90.0449 74.4455C89.9849 74.1455 89.9069 73.8335 89.8109 73.5095C90.2069 73.2695 90.7409 73.0715 91.4129 72.9155C92.0849 72.7595 92.7989 72.6815 93.5549 72.6815C94.7189 72.6815 95.5829 72.8855 96.1469 73.2935C96.7229 73.6895 97.0109 74.2655 97.0109 75.0215C97.0109 75.2375 96.9749 75.4535 96.9029 75.6695C96.8429 75.8855 96.7469 76.0955 96.6149 76.2995C96.4829 76.4915 96.3149 76.6715 96.1109 76.8395C95.9069 76.9955 95.6669 77.1215 95.3909 77.2175V77.3615C96.1349 77.5175 96.6569 77.7875 96.9569 78.1715C97.2569 78.5435 97.4069 79.0475 97.4069 79.6835C97.4069 80.0795 97.3169 80.4515 97.1369 80.7995C96.9689 81.1355 96.7049 81.4355 96.3449 81.6995C95.9849 81.9635 95.5289 82.1675 94.9769 82.3115C94.4369 82.4675 93.7949 82.5455 93.0509 82.5455C92.3309 82.5455 91.6889 82.4675 91.1249 82.3115C90.5609 82.1555 90.0989 81.9815 89.7389 81.7895C89.8229 81.4655 89.9129 81.1415 90.0089 80.8175C90.1049 80.4935 90.2009 80.1695 90.2969 79.8455C90.6209 80.0135 91.0109 80.1575 91.4669 80.2775C91.9349 80.3855 92.4389 80.4395 92.9789 80.4395C94.2509 80.4395 94.8869 80.0735 94.8869 79.3415C94.8869 79.1735 94.8449 79.0295 94.7609 78.9095C94.6889 78.7895 94.5629 78.6935 94.3829 78.6215C94.2029 78.5375 93.9569 78.4775 93.6449 78.4415C93.3449 78.4055 92.9609 78.3875 92.4929 78.3875H91.5569ZM99.4468 73.5095C99.9868 73.2695 100.647 73.0715 101.427 72.9155C102.219 72.7595 103.035 72.6815 103.875 72.6815C104.535 72.6815 105.087 72.7595 105.531 72.9155C105.987 73.0715 106.347 73.2995 106.611 73.5995C106.875 73.8875 107.061 74.2415 107.169 74.6615C107.289 75.0695 107.349 75.5255 107.349 76.0295C107.349 76.6415 107.325 77.2475 107.277 77.8475C107.229 78.4475 107.205 79.0835 107.205 79.7555C107.205 80.2115 107.235 80.6555 107.295 81.0875C107.355 81.5195 107.451 81.9335 107.583 82.3295H105.531L105.117 80.9255H104.901C104.589 81.3455 104.193 81.7055 103.713 82.0055C103.233 82.3055 102.615 82.4555 101.859 82.4555C101.403 82.4555 100.983 82.3895 100.599 82.2575C100.227 82.1255 99.9028 81.9395 99.6268 81.6995C99.3628 81.4475 99.1528 81.1535 98.9968 80.8175C98.8528 80.4815 98.7808 80.1155 98.7808 79.7195C98.7808 78.6515 99.1348 77.8475 99.8428 77.3075C100.563 76.7555 101.649 76.4795 103.101 76.4795C103.437 76.4795 103.773 76.5095 104.109 76.5695C104.445 76.6175 104.679 76.6535 104.811 76.6775C104.847 76.4255 104.865 76.2095 104.865 76.0295C104.865 75.5735 104.751 75.2375 104.523 75.0215C104.295 74.8055 103.869 74.6975 103.245 74.6975C102.669 74.6975 102.105 74.7695 101.553 74.9135C101.013 75.0455 100.533 75.2135 100.113 75.4175L99.4468 73.5095ZM102.741 80.4395C103.305 80.4395 103.755 80.3075 104.091 80.0435C104.427 79.7795 104.673 79.5035 104.829 79.2155V78.1355C104.769 78.1115 104.673 78.0875 104.541 78.0635C104.421 78.0395 104.283 78.0155 104.127 77.9915C103.983 77.9675 103.833 77.9495 103.677 77.9375C103.533 77.9255 103.401 77.9195 103.281 77.9195C102.633 77.9195 102.153 78.0395 101.841 78.2795C101.529 78.5075 101.373 78.7955 101.373 79.1435C101.373 79.5755 101.493 79.8995 101.733 80.1155C101.985 80.3315 102.321 80.4395 102.741 80.4395ZM116.405 78.0455L116.513 76.4435L115.379 78.0275L111.653 82.3115H110.141V72.8615H112.661V77.3075L112.571 78.6035H112.787C112.931 78.3995 113.075 78.1835 113.219 77.9555C113.375 77.7275 113.525 77.5115 113.669 77.3075L117.413 72.8615H118.925V82.3115H116.405V78.0455ZM113.381 68.9555C113.477 69.4595 113.645 69.8015 113.885 69.9815C114.125 70.1615 114.437 70.2515 114.821 70.2515C115.217 70.2515 115.529 70.1615 115.757 69.9815C115.997 69.7895 116.165 69.4535 116.261 68.9735L118.133 69.4595C117.977 70.2515 117.587 70.8455 116.963 71.2415C116.339 71.6375 115.595 71.8355 114.731 71.8355C114.311 71.8355 113.909 71.7935 113.525 71.7095C113.153 71.6255 112.811 71.4875 112.499 71.2955C112.187 71.1035 111.917 70.8575 111.689 70.5575C111.473 70.2575 111.323 69.8915 111.239 69.4595L113.381 68.9555ZM127.796 78.6575H124.214V82.3115H121.694V72.8615H124.214V76.3715H127.796V72.8615H130.316V82.3115H127.796V78.6575ZM141.171 81.4475C140.763 81.7595 140.205 82.0295 139.497 82.2575C138.801 82.4735 138.051 82.5815 137.247 82.5815C135.627 82.5815 134.439 82.1375 133.683 81.2495C132.927 80.3615 132.549 79.1435 132.549 77.5955C132.549 75.9515 132.975 74.7095 133.827 73.8695C134.679 73.0175 135.879 72.5915 137.427 72.5915C137.931 72.5915 138.429 72.6575 138.921 72.7895C139.413 72.9095 139.851 73.1195 140.235 73.4195C140.619 73.7075 140.925 74.1035 141.153 74.6075C141.393 75.0995 141.513 75.7115 141.513 76.4435C141.513 76.6955 141.495 76.9715 141.459 77.2715C141.435 77.5715 141.387 77.8835 141.315 78.2075H135.015C135.075 79.0235 135.309 79.6295 135.717 80.0255C136.137 80.4095 136.815 80.6015 137.751 80.6015C138.315 80.6015 138.819 80.5235 139.263 80.3675C139.719 80.1995 140.067 80.0315 140.307 79.8635L141.171 81.4475ZM137.391 74.5715C136.647 74.5715 136.095 74.7755 135.735 75.1835C135.375 75.5795 135.165 76.0895 135.105 76.7135H139.173C139.221 76.0535 139.101 75.5315 138.813 75.1475C138.525 74.7635 138.051 74.5715 137.391 74.5715ZM143.956 72.8615H145.756L146.062 74.0315H146.278C146.65 73.5515 147.082 73.1915 147.574 72.9515C148.066 72.7115 148.642 72.5915 149.302 72.5915C150.574 72.5915 151.528 72.9755 152.164 73.7435C152.8 74.4995 153.118 75.7055 153.118 77.3615C153.118 78.1535 153.016 78.8735 152.812 79.5215C152.608 80.1575 152.308 80.7095 151.912 81.1775C151.516 81.6335 151.024 81.9875 150.436 82.2395C149.86 82.4795 149.194 82.5995 148.438 82.5995C148.03 82.5995 147.676 82.5575 147.376 82.4735C147.076 82.4015 146.776 82.2995 146.476 82.1675V85.8935H143.956V72.8615ZM148.528 74.6975C147.952 74.6975 147.508 74.8295 147.196 75.0935C146.884 75.3455 146.644 75.7415 146.476 76.2815V79.9535C146.68 80.1215 146.908 80.2535 147.16 80.3495C147.412 80.4455 147.73 80.4935 148.114 80.4935C148.93 80.4935 149.536 80.2415 149.932 79.7375C150.328 79.2215 150.526 78.4055 150.526 77.2895C150.526 76.4855 150.37 75.8555 150.058 75.3995C149.758 74.9315 149.248 74.6975 148.528 74.6975Z" fill="#FEFEFF"/>
<defs>
<filter id="filter0_dddd_3600_4646" x="-5.02585" y="-8" width="179.052" height="125.312" filterUnits="userSpaceOnUse" color-interpolation-filters="sRGB">
<feFlood flood-opacity="0" result="BackgroundImageFix"/>
<feColorMatrix in="SourceAlpha" type="matrix" values="0 0 0 0 0 0 0 0 0 0 0 0 0 0 0 0 0 0 127 0" result="hardAlpha"/>
<feOffset/>
<feGaussianBlur stdDeviation="0.5"/>
<feColorMatrix type="matrix" values="0 0 0 0 0.168627 0 0 0 0 0.313726 0 0 0 0 0.666667 0 0 0 0.16 0"/>
<feBlend mode="normal" in2="BackgroundImageFix" result="effect1_dropShadow_3600_4646"/>
<feColorMatrix in="SourceAlpha" type="matrix" values="0 0 0 0 0 0 0 0 0 0 0 0 0 0 0 0 0 0 127 0" result="hardAlpha"/>
<feOffset dy="4"/>
<feGaussianBlur stdDeviation="4"/>
<feColorMatrix type="matrix" values="0 0 0 0 0.168627 0 0 0 0 0.313726 0 0 0 0 0.666667 0 0 0 0.16 0"/>
<feBlend mode="normal" in2="effect1_dropShadow_3600_4646" result="effect2_dropShadow_3600_4646"/>
<feColorMatrix in="SourceAlpha" type="matrix" values="0 0 0 0 0 0 0 0 0 0 0 0 0 0 0 0 0 0 127 0" result="hardAlpha"/>
<feOffset dy="16"/>
<feGaussianBlur stdDeviation="12"/>
<feColorMatrix type="matrix" values="0 0 0 0 0.168627 0 0 0 0 0.313726 0 0 0 0 0.666667 0 0 0 0.16 0"/>
<feBlend mode="normal" in2="effect2_dropShadow_3600_4646" result="effect3_dropShadow_3600_4646"/>
<feColorMatrix in="SourceAlpha" type="matrix" values="0 0 0 0 0 0 0 0 0 0 0 0 0 0 0 0 0 0 127 0" result="hardAlpha"/>
<feOffset dy="24"/>
<feGaussianBlur stdDeviation="16"/>
<feColorMatrix type="matrix" values="0 0 0 0 0.168627 0 0 0 0 0.313726 0 0 0 0 0.666667 0 0 0 0.16 0"/>
<feBlend mode="normal" in2="effect3_dropShadow_3600_4646" result="effect4_dropShadow_3600_4646"/>
<feBlend mode="normal" in="SourceGraphic" in2="effect4_dropShadow_3600_4646" result="shape"/>
</filter>
<linearGradient id="paint0_linear_3600_4646" x1="30.5345" y1="22.0168" x2="138.266" y2="54.5318" gradientUnits="userSpaceOnUse">
<stop stop-color="#4B7AD5"/>
<stop offset="1" stop-color="#8649D7"/>
</linearGradient>
<linearGradient id="paint1_linear_3600_4646" x1="65.183" y1="35.8381" x2="103.82" y2="25.4854" gradientUnits="userSpaceOnUse">
<stop stop-color="#9864DD"/>
<stop offset="1" stop-color="#5B80D3"/>
</linearGradient>
</defs>
</svg>
